<?xml version="1.0" encoding="UTF-8"?>
<svg xmlns="http://www.w3.org/2000/svg" version="1.1" xmlns:xlink="http://www.w3.org/1999/xlink"
  viewBox="0 0 78 24">
  <defs>
    <style>
      .cls-1 {
      fill: url(#linear-gradient-2);
      }

      .cls-2 {
      fill: url(#linear-gradient-4);
      }

      .cls-3 {
      fill: url(#linear-gradient-3);
      }

      .cls-4 {
      fill: url(#linear-gradient-5);
      }

      .cls-5 {
      fill: url(#linear-gradient);
      }
    </style>
    <linearGradient id="linear-gradient" x1="-563.5" y1="248.25" x2="-533.49" y2="248.25"
      gradientTransform="translate(564 260) scale(1 -1)" gradientUnits="userSpaceOnUse">
      <stop offset="0" stop-color="#38ff9c" />
      <stop offset="1" stop-color="#171717" />
    </linearGradient>
    <linearGradient id="linear-gradient-2" x1="-558.66" y1="249.95" x2="-547.37" y2="249.95"
      xlink:href="#linear-gradient" />
    <linearGradient id="linear-gradient-3" x1="-555.1" y1="246.54" x2="-543.87" y2="246.54"
      xlink:href="#linear-gradient" />
    <linearGradient id="linear-gradient-4" x1="-558.66" y1="244.93" x2="-550.14" y2="244.93"
      xlink:href="#linear-gradient" />
    <linearGradient id="linear-gradient-5" x1="-551.96" y1="251.61" x2="-544.1" y2="251.61"
      xlink:href="#linear-gradient" />
  </defs>
  <!-- Generator: Adobe Illustrator 28.6.0, SVG Export Plug-In . SVG Version: 1.2.0 Build 709)  -->
  <g>
    <g id="Layer_1">
      <path class="cls-5"
        d="M11.25,1C5.31,1,.5,5.81.5,11.75s4.81,10.75,10.75,10.75,10.75-4.81,10.75-10.75S17.19,1,11.25,1ZM11.25,20.6c-4.89,0-8.85-3.96-8.85-8.85S6.36,2.9,11.25,2.9s8.85,3.96,8.85,8.85-3.96,8.85-8.85,8.85Z" />
      <path class="cls-1"
        d="M11.19,5.84c-3.25.03-5.89,2.73-5.85,5.98,0,.83.19,1.62.51,2.34.05.11.19.13.27.05l1.3-1.35c.09-.09.12-.21.1-.33-.05-.25-.08-.51-.08-.78,0-2.11,1.71-3.81,3.81-3.81.22,0,.43.02.63.05.14.02.28-.02.38-.12l1.3-1.34c.08-.08.05-.21-.05-.25-.71-.29-1.49-.45-2.31-.44h0Z" />
      <path class="cls-3"
        d="M11.31,17.67c3.25-.03,5.89-2.73,5.85-5.98,0-.83-.19-1.62-.51-2.34-.05-.11-.19-.13-.27-.05l-1.3,1.35c-.09.09-.12.21-.1.33.05.25.08.51.08.78,0,2.11-1.71,3.81-3.81,3.81-.22,0-.43-.02-.63-.05-.14-.02-.28.02-.38.12l-1.3,1.34c-.08.08-.05.21.05.25.71.29,1.49.45,2.31.44h0Z" />
      <path class="cls-2"
        d="M5.72,15.4l2.48-2.48c.5-.5,1.32-.5,1.82,0,.5.5.5,1.32,0,1.82l-2.48,2.48c-.5.5-1.32.5-1.82,0-.5-.5-.5-1.32,0-1.82Z" />
      <path class="cls-4"
        d="M12.42,8.72l2.48-2.48c.5-.5,1.32-.5,1.82,0,.5.5.5,1.32,0,1.82l-2.48,2.48c-.5.5-1.32.5-1.82,0s-.5-1.32,0-1.82Z" />
      <g>
        <path fill="currentColor"
          d="M23.37,14.97v-5.82h3.92v1.01h-2.69v1.39h2.49v1.01h-2.49v1.39h2.7v1.01h-3.93Z" />
        <path fill="currentColor"
          d="M30.57,10.61v.91h-2.63v-.91h2.63ZM28.54,9.57h1.21v4.07c0,.11.02.2.05.26s.08.1.14.13c.06.03.13.04.21.04.06,0,.11,0,.17-.02.06,0,.1-.02.13-.02l.19.9c-.06.02-.15.04-.26.07s-.24.04-.4.05c-.29.01-.55-.03-.77-.12s-.39-.23-.51-.42-.18-.42-.18-.71v-4.23Z" />
        <path fill="currentColor"
          d="M32.57,12.45v2.52h-1.21v-5.82h1.18v2.22h.05c.1-.26.26-.46.48-.61s.5-.22.83-.22c.3,0,.57.07.79.2.23.13.4.32.53.57.13.25.19.54.19.88v2.78h-1.21v-2.56c0-.27-.07-.48-.2-.63s-.33-.22-.58-.22c-.17,0-.31.04-.44.11s-.22.17-.3.31c-.07.13-.11.29-.11.48Z" />
        <path fill="currentColor"
          d="M38.34,15.06c-.45,0-.83-.09-1.16-.27-.32-.18-.57-.44-.75-.78-.17-.34-.26-.73-.26-1.19s.09-.84.26-1.18c.17-.34.42-.6.74-.79.32-.19.69-.28,1.12-.28.29,0,.56.05.81.14.25.09.47.23.65.41.19.18.33.41.44.69.1.28.16.6.16.97v.33h-3.69v-.75h2.55c0-.17-.04-.33-.11-.46-.08-.13-.18-.24-.31-.32-.13-.08-.29-.11-.46-.11s-.35.04-.49.13-.25.2-.33.34c-.08.14-.12.3-.12.47v.71c0,.22.04.4.12.56s.19.28.34.36c.15.09.32.13.53.13.13,0,.26-.02.37-.06s.21-.09.29-.17c.08-.08.14-.17.18-.28l1.12.07c-.06.27-.17.5-.35.7-.18.2-.4.36-.68.47-.28.11-.59.17-.95.17Z" />
        <path fill="currentColor"
          d="M41.13,14.97v-4.36h1.17v.76h.05c.08-.27.21-.48.4-.62.19-.14.4-.21.65-.21.06,0,.13,0,.2.01.07,0,.13.02.18.03v1.07c-.06-.02-.14-.03-.24-.05-.1-.01-.19-.02-.28-.02-.18,0-.34.04-.48.12-.14.08-.25.18-.33.32-.08.14-.12.29-.12.47v2.47h-1.21Z" />
        <path fill="currentColor" d="M45.61,9.16v5.82h-1.21v-5.82h1.21Z" />
        <path fill="currentColor"
          d="M47.19,10.05c-.18,0-.33-.06-.46-.18-.13-.12-.19-.26-.19-.43s.06-.31.19-.43c.13-.12.28-.18.46-.18s.33.06.46.18.19.26.19.43-.06.31-.19.43-.28.18-.46.18ZM46.58,14.97v-4.36h1.21v4.36h-1.21Z" />
        <path fill="currentColor"
          d="M49.96,12.45v2.52h-1.21v-4.36h1.15v.77h.05c.1-.25.26-.46.49-.6.23-.15.5-.22.83-.22.3,0,.57.07.79.2.22.13.4.32.53.57.12.25.19.54.19.88v2.78h-1.21v-2.56c0-.27-.07-.48-.21-.63-.14-.15-.33-.23-.57-.23-.16,0-.31.04-.43.11s-.22.17-.29.31c-.07.13-.1.29-.11.48Z" />
        <path fill="currentColor"
          d="M53.73,14.97v-5.82h1.21v5.82h-1.21ZM54.83,13.72v-1.45h.18l1.4-1.66h1.39l-1.88,2.19h-.29l-.8.92ZM56.46,14.97l-1.28-1.9.81-.86,1.89,2.76h-1.42Z" />
        <path fill="currentColor"
          d="M63.42,10.83c-.02-.23-.12-.41-.29-.53-.17-.13-.41-.19-.7-.19-.2,0-.37.03-.51.08-.14.06-.24.13-.32.23-.07.1-.11.21-.11.33,0,.1.02.2.07.27.05.08.12.14.2.2.08.06.18.1.3.15.11.04.23.08.36.1l.52.12c.25.06.49.13.7.23s.4.21.55.35c.16.14.28.3.36.49.09.19.13.4.13.64,0,.36-.09.66-.27.92-.18.26-.44.46-.77.61-.34.14-.74.21-1.21.21s-.88-.07-1.23-.22c-.35-.14-.62-.36-.81-.64-.19-.28-.3-.63-.31-1.05h1.19c.01.2.07.36.17.49.1.13.23.23.4.29s.36.1.57.1.39-.03.54-.09.27-.14.36-.25c.09-.11.13-.23.13-.37,0-.13-.04-.24-.12-.33-.08-.09-.19-.17-.33-.23s-.33-.12-.54-.17l-.63-.16c-.49-.12-.88-.31-1.16-.56-.28-.25-.42-.6-.42-1.03,0-.35.09-.66.28-.92.19-.26.45-.47.79-.62.33-.15.71-.22,1.14-.22s.81.07,1.13.22c.32.15.57.35.75.62.18.26.27.57.28.92h-1.18Z" />
        <path fill="currentColor"
          d="M66.72,15.06c-.28,0-.53-.05-.74-.15-.22-.1-.39-.24-.52-.44-.13-.19-.19-.43-.19-.72,0-.24.04-.45.13-.61.09-.17.21-.3.36-.4s.33-.18.52-.23c.2-.05.4-.09.62-.11.25-.03.46-.05.61-.08s.27-.06.34-.11c.07-.05.11-.12.11-.21v-.02c0-.18-.06-.32-.17-.42-.11-.1-.27-.15-.48-.15-.22,0-.39.05-.52.14s-.21.22-.26.36l-1.12-.09c.06-.27.17-.5.33-.69.17-.19.38-.34.65-.45.26-.11.57-.16.92-.16.24,0,.48.03.7.09.22.06.42.14.59.26.17.12.31.27.41.46s.15.41.15.67v2.94h-1.15v-.61h-.03c-.07.14-.16.26-.28.36-.12.1-.26.18-.42.24-.16.06-.35.09-.57.09ZM67.07,14.22c.18,0,.33-.04.47-.11.14-.07.24-.17.32-.29.08-.12.12-.26.12-.41v-.46s-.09.05-.16.07-.14.04-.22.05c-.08.02-.16.03-.25.04-.08.01-.16.02-.22.03-.14.02-.27.05-.37.1-.11.05-.19.11-.25.18-.06.08-.09.17-.09.29,0,.17.06.29.18.38.12.09.27.13.46.13Z" />
        <path fill="currentColor"
          d="M72.46,10.61v.91h-2.69v-.91h2.69ZM70.39,14.97v-4.68c0-.32.06-.58.19-.79s.29-.36.51-.47.46-.16.74-.16c.19,0,.36.01.51.04.15.03.27.05.35.08l-.22.91s-.11-.03-.17-.04c-.07-.01-.14-.02-.21-.02-.18,0-.3.04-.37.12-.07.08-.11.2-.11.34v4.66h-1.21Z" />
        <path fill="currentColor"
          d="M75.19,15.06c-.45,0-.83-.09-1.16-.27-.32-.18-.57-.44-.75-.78-.17-.34-.26-.73-.26-1.19s.09-.84.26-1.18c.17-.34.42-.6.74-.79s.69-.28,1.12-.28c.29,0,.56.05.81.14.25.09.47.23.65.41s.33.41.44.69c.1.28.16.6.16.97v.33h-3.68v-.75h2.54c0-.17-.04-.33-.11-.46-.08-.13-.18-.24-.31-.32-.13-.08-.29-.11-.46-.11s-.35.04-.49.13c-.14.08-.25.2-.33.34-.08.14-.12.3-.12.47v.71c0,.22.04.4.12.56.08.16.19.28.34.36.15.09.32.13.53.13.13,0,.26-.02.37-.06.11-.04.21-.09.29-.17.08-.08.14-.17.18-.28l1.12.07c-.06.27-.17.5-.35.7-.17.2-.4.36-.68.47-.28.11-.59.17-.95.17Z" />
      </g>
    </g>
  </g>
</svg>