<?xml version="1.0" encoding="UTF-8"?>
<svg width="78" height="24" xmlns="http://www.w3.org/2000/svg" xmlns:xlink="http://www.w3.org/1999/xlink" viewBox="250 0 1280 980">
  <defs>
    <style>
      .cls-1 {
        fill: url(#linear-gradient);
      }

      .cls-1, .cls-2, .cls-3, .cls-4, .cls-5, .cls-6 {
        stroke-width: 0px;
      }

      .cls-2 {
        fill: url(#linear-gradient-4);
      }

      .cls-3 {
        fill: url(#linear-gradient-2);
      }

      .cls-4 {
        fill: url(#linear-gradient-3);
      }

      .cls-5 {
        fill: url(#linear-gradient-5);
      }

      .cls-6 {
        fill: #171717;
      }
    </style>
    <linearGradient id="linear-gradient" x1="156.05" y1="540" x2="679.7" y2="540" gradientUnits="userSpaceOnUse">
      <stop offset="0" stop-color="#38ff9c"/>
      <stop offset="1" stop-color="#171717"/>
    </linearGradient>
    <linearGradient id="linear-gradient-2" x1="240.46" y1="510.26" x2="437.46" y2="510.26" gradientUnits="userSpaceOnUse">
      <stop offset="0" stop-color="#38ff9c"/>
      <stop offset="1" stop-color="#171717"/>
    </linearGradient>
    <linearGradient id="linear-gradient-3" x1="302.65" y1="569.87" x2="498.58" y2="569.87" xlink:href="#linear-gradient-2"/>
    <linearGradient id="linear-gradient-4" x1="240.56" y1="597.97" x2="389.14" y2="597.97" gradientTransform="translate(506.22 -26.19) rotate(45)" xlink:href="#linear-gradient-2"/>
    <linearGradient id="linear-gradient-5" x1="357.37" y1="481.42" x2="494.46" y2="481.42" gradientTransform="translate(458.02 -142.93) rotate(45)" xlink:href="#linear-gradient-2"/>
  </defs>
  <g>
    <path class="cls-1" d="M343.61,352.44c-103.59,0-187.56,83.98-187.56,187.56s83.98,187.56,187.56,187.56,187.56-83.98,187.56-187.56-83.98-187.56-187.56-187.56ZM343.61,694.36c-85.25,0-154.36-69.11-154.36-154.36s69.11-154.36,154.36-154.36,154.36,69.11,154.36,154.36-69.11,154.36-154.36,154.36Z"/>
    <path class="cls-3" d="M342.58,436.86c-56.75.56-102.75,47.58-102.11,104.33.16,14.51,3.32,28.3,8.9,40.79.83,1.87,3.31,2.29,4.73.82l22.74-23.47c1.48-1.53,2.09-3.69,1.66-5.78-.9-4.37-1.37-8.89-1.37-13.53,0-36.73,29.77-66.5,66.49-66.5,3.76,0,7.44.31,11.02.91,2.4.4,4.85-.36,6.54-2.11l22.62-23.33c1.32-1.37.86-3.65-.9-4.37-12.41-5.11-26.03-7.88-40.32-7.74Z"/>
    <path class="cls-4" d="M344.63,643.27c56.75-.56,102.75-47.58,102.11-104.33-.16-14.51-3.32-28.3-8.9-40.79-.83-1.87-3.31-2.29-4.73-.82l-22.74,23.47c-1.48,1.53-2.09,3.69-1.66,5.78.9,4.37,1.37,8.89,1.37,13.53,0,36.73-29.77,66.5-66.49,66.5-3.76,0-7.44-.31-11.02-.91-2.4-.4-4.85.36-6.54,2.11l-22.62,23.33c-1.32,1.37-.86,3.65.9,4.37,12.41,5.11,26.03,7.88,40.32,7.74Z"/>
    <rect class="cls-2" x="231.59" y="575.46" width="106.28" height="45.02" rx="22.51" ry="22.51" transform="translate(-339.43 376.47) rotate(-45)"/>
    <rect class="cls-5" x="348.4" y="458.91" width="106.28" height="45.02" rx="22.51" ry="22.51" transform="translate(-222.8 424.94) rotate(-45)"/>
  </g>
  <g>
    <path fill="currentColor" d="M650.91,637.91v-192.22h125.02v29.19h-90.2v52.18h83.72v29.19h-83.72v52.47h90.95v29.19h-125.77Z"/>
    <path fill="currentColor" d="M881.98,493.74v26.28h-82.88v-26.28h82.88ZM819.57,459.2h33.98v135.34c0,4.57.7,8.06,2.11,10.47,1.41,2.41,3.27,4.05,5.58,4.93,2.31.88,4.88,1.31,7.7,1.31,2.13,0,4.08-.16,5.87-.47,1.78-.31,3.14-.59,4.08-.84l5.73,26.56c-1.82.63-4.4,1.31-7.74,2.06-3.35.75-7.43,1.19-12.25,1.31-8.51.25-16.18-1.05-23-3.9-6.82-2.85-12.22-7.27-16.19-13.28-3.97-6.01-5.93-13.52-5.87-22.53v-140.97Z"/>
    <path fill="currentColor" d="M944.39,553.43v84.47h-33.98v-192.22h33.23v72.55h1.69c3.38-8.13,8.62-14.56,15.72-19.29,7.1-4.72,16.16-7.09,27.17-7.09,10.01,0,18.74,2.1,26.19,6.29,7.45,4.19,13.22,10.32,17.32,18.4,4.1,8.07,6.15,17.93,6.15,29.57v91.79h-33.98v-86.54c0-9.7-2.49-17.25-7.46-22.67-4.97-5.41-11.94-8.12-20.88-8.12-6.01,0-11.37,1.3-16.1,3.9-4.73,2.6-8.42,6.34-11.08,11.22-2.66,4.88-3.99,10.79-3.99,17.74Z"/>
    <path fill="currentColor" d="M1136.24,640.72c-14.45,0-26.92-3.02-37.4-9.06-10.48-6.04-18.54-14.61-24.17-25.72-5.63-11.11-8.45-24.2-8.45-39.28s2.83-27.86,8.49-39.09c5.66-11.23,13.59-19.99,23.79-26.28,10.2-6.29,22.18-9.43,35.95-9.43,8.88,0,17.28,1.42,25.2,4.27,7.91,2.85,14.92,7.24,21.02,13.19,6.1,5.95,10.9,13.5,14.41,22.67,3.5,9.17,5.26,20.07,5.26,32.71v10.42h-118.17v-22.9h85.6c-.06-6.51-1.47-12.31-4.22-17.41-2.75-5.1-6.59-9.12-11.5-12.06-4.91-2.94-10.62-4.41-17.13-4.41-6.95,0-13.05,1.67-18.3,5.02-5.26,3.35-9.34,7.73-12.25,13.14-2.91,5.41-4.4,11.34-4.46,17.79v19.99c0,8.39,1.53,15.57,4.6,21.54,3.07,5.98,7.35,10.54,12.86,13.7,5.51,3.16,11.95,4.74,19.33,4.74,4.94,0,9.42-.7,13.42-2.11,4-1.41,7.48-3.49,10.42-6.24,2.94-2.75,5.16-6.16,6.66-10.23l31.72,3.57c-2,8.39-5.8,15.69-11.4,21.92-5.6,6.23-12.75,11.04-21.45,14.45-8.7,3.41-18.65,5.12-29.85,5.12Z"/>
    <path fill="currentColor" d="M1229.06,637.91v-144.17h32.94v24.03h1.5c2.63-8.32,7.15-14.75,13.56-19.29,6.41-4.54,13.75-6.8,22.01-6.8,1.88,0,3.99.08,6.34.23,2.35.16,4.3.39,5.87.7v31.25c-1.44-.5-3.71-.95-6.8-1.36-3.1-.41-6.09-.61-8.96-.61-6.19,0-11.75,1.33-16.66,3.99-4.91,2.66-8.78,6.34-11.59,11.03-2.82,4.69-4.22,10.11-4.22,16.24v84.75h-33.98Z"/>
    <path fill="currentColor" d="M1367.87,445.68v192.22h-33.98v-192.22h33.98Z"/>
    <path fill="currentColor" d="M1419.87,473.28c-5.38,0-10.01-1.81-13.89-5.44-3.88-3.63-5.82-7.98-5.82-13.05s1.94-9.4,5.82-13c3.88-3.6,8.51-5.4,13.89-5.4s10.09,1.82,13.94,5.44c3.85,3.63,5.77,7.98,5.77,13.05s-1.92,9.4-5.77,13c-3.85,3.6-8.49,5.4-13.94,5.4ZM1402.79,637.91v-144.17h33.98v144.17h-33.98Z"/>
    <path fill="currentColor" d="M1505.66,553.43v84.47h-33.98v-144.17h32.47v24.5h1.69c3.32-8.07,8.62-14.48,15.91-19.24,7.29-4.75,16.32-7.13,27.08-7.13,9.95,0,18.63,2.13,26.05,6.38,7.41,4.26,13.17,10.42,17.27,18.49,4.1,8.07,6.12,17.87,6.05,29.38v91.79h-33.98v-86.54c0-9.64-2.49-17.18-7.46-22.62-4.97-5.44-11.84-8.17-20.6-8.17-5.95,0-11.22,1.3-15.82,3.9-4.6,2.6-8.2,6.34-10.79,11.22-2.6,4.88-3.9,10.79-3.9,17.74Z"/>
    <path fill="currentColor" d="M1632.83,637.91v-192.22h33.98v192.22h-33.98ZM1663.81,592.67l-.09-41.02h5.44l51.81-57.91h39.7l-63.73,70.96h-7.04l-26.09,27.97ZM1723.31,637.91l-46.93-65.61,22.9-23.93,64.67,89.54h-40.64Z"/>
  </g>
</svg>